{"glyphs":{"0":{"ha":600,"x_min":43,"x_max":557,"o":"m 300 -10 l 300 -10 q 109 85 175 -10 q 43 354 43 179 l 43 354 q 73 553 43 472 q 160 674 102 633 q 300 715 217 715 l 300 715 q 492 623 426 715 q 557 355 557 531 l 557 355 q 528 157 557 238 q 441 33 498 75 q 300 -10 384 -10 m 300 95 l 300 95 q 401 158 368 95 q 433 355 433 221 l 433 355 q 401 550 433 489 q 300 610 368 610 l 300 610 q 200 550 233 610 q 167 355 167 489 l 167 355 q 200 158 167 221 q 300 95 233 95"},"1":{"ha":600,"x_min":100,"x_max":553,"o":"m 498 0 l 156 0 q 116 15 130 0 q 101 54 101 29 l 101 54 q 116 93 101 80 q 156 106 130 106 l 156 106 l 268 106 l 268 597 l 330 597 l 183 508 q 148 500 164 497 q 120 514 131 502 q 104 541 108 525 q 107 574 100 557 q 132 601 113 590 l 132 601 l 270 684 q 310 705 290 696 q 347 713 330 713 l 347 713 q 382 702 368 713 q 396 664 396 690 l 396 664 l 396 106 l 498 106 q 539 93 524 106 q 553 54 553 80 l 553 54 q 539 14 553 28 q 498 0 524 0 l 498 0"},"2":{"ha":600,"x_min":54,"x_max":556,"o":"m 501 0 l 133 0 q 87 15 101 0 q 72 57 72 29 l 72 57 q 81 90 72 74 q 107 124 90 106 l 107 124 l 308 338 q 374 426 354 386 q 394 505 394 465 l 394 505 q 363 581 394 555 q 271 607 331 607 l 271 607 q 203 598 237 607 q 134 565 169 588 l 134 565 q 101 555 116 553 q 74 568 85 557 q 58 595 62 579 q 60 628 54 611 q 83 656 65 644 l 83 656 q 180 700 126 685 q 287 715 233 715 l 287 715 q 415 692 363 715 q 494 625 467 669 q 521 518 521 581 l 521 518 q 508 436 521 476 q 467 355 494 396 q 395 268 439 314 l 395 268 l 207 72 l 207 106 l 501 106 q 542 93 528 106 q 556 54 556 80 l 556 54 q 542 14 556 28 q 501 0 528 0 l 501 0"},"3":{"ha":600,"x_min":39,"x_max":541,"o":"m 286 -10 l 286 -10 q 174 4 232 -10 q 73 46 116 18 l 73 46 q 46 76 53 59 q 43 109 39 93 q 58 135 46 124 q 87 148 69 146 q 125 139 104 150 l 125 139 q 204 108 166 117 q 282 98 242 98 l 282 98 q 356 110 326 98 q 402 146 386 122 q 417 204 417 170 l 417 204 q 384 279 417 254 q 286 303 350 303 l 286 303 l 222 303 q 180 317 194 303 q 165 356 165 331 l 165 356 q 180 395 165 381 q 222 409 194 409 l 222 409 l 274 409 q 339 422 312 409 q 381 457 366 434 q 396 513 396 480 l 396 513 q 366 583 396 559 q 277 607 335 607 l 277 607 q 208 599 240 607 q 136 567 175 590 l 136 567 q 102 558 118 556 q 74 571 85 560 q 59 598 63 582 q 61 630 55 613 q 86 658 67 646 l 86 658 q 181 701 129 686 q 288 715 233 715 l 288 715 q 413 693 361 715 q 493 629 465 670 q 520 528 520 587 l 520 528 q 504 452 520 486 q 459 393 488 417 q 389 359 430 369 l 389 359 l 389 371 q 501 312 461 359 q 541 193 541 264 l 541 193 q 510 85 541 131 q 422 15 479 39 q 286 -10 365 -10"},"4":{"ha":600,"x_min":34,"x_max":584,"o":"m 413 -8 l 413 -8 q 366 9 383 -8 q 349 56 349 25 l 349 56 l 349 134 l 102 134 q 53 147 71 134 q 34 188 34 160 l 34 188 q 43 223 34 204 q 73 273 51 242 l 73 273 l 347 670 q 378 702 361 691 q 417 713 395 713 l 417 713 q 460 698 443 713 q 477 649 477 682 l 477 649 l 477 240 l 526 240 q 570 227 555 240 q 584 187 584 213 l 584 187 q 570 148 584 161 q 526 134 555 134 l 526 134 l 477 134 l 477 56 q 460 9 477 25 q 413 -8 443 -8 m 142 240 l 349 240 l 349 552 l 378 552 l 142 206 l 142 240"},"5":{"ha":600,"x_min":65,"x_max":562,"o":"m 306 -10 l 306 -10 q 198 4 253 -10 q 97 47 143 18 l 97 47 q 72 76 78 59 q 69 109 65 92 q 84 137 72 125 q 112 150 95 148 q 148 141 128 152 l 148 141 q 223 109 185 120 q 304 98 261 98 l 304 98 q 376 113 346 98 q 422 155 406 128 q 438 218 438 182 l 438 218 q 404 309 438 274 q 311 343 370 343 l 311 343 q 249 333 279 343 q 190 296 219 322 l 190 296 q 167 281 181 288 q 137 273 153 273 l 137 273 q 99 286 112 273 q 86 322 86 299 l 86 322 l 86 649 q 101 691 86 676 q 142 705 115 705 l 142 705 l 471 705 q 513 692 498 705 q 527 652 527 678 l 527 652 q 513 613 527 627 q 471 599 498 599 l 471 599 l 211 599 l 211 375 l 178 375 q 247 429 204 410 q 341 448 290 448 l 341 448 q 458 420 408 448 q 535 341 507 391 q 562 223 562 290 l 562 223 q 531 102 562 154 q 443 20 500 49 q 306 -10 385 -10"},"6":{"ha":600,"x_min":52,"x_max":559,"o":"m 326 -10 l 326 -10 q 178 32 239 -10 q 84 151 116 73 q 52 340 52 229 l 52 340 q 73 500 52 430 q 132 617 93 569 q 228 690 171 665 q 355 715 284 715 l 355 715 q 445 702 399 715 q 530 661 490 688 l 530 661 q 551 635 546 651 q 553 604 556 619 q 539 577 549 588 q 512 563 528 565 q 477 571 496 560 l 477 571 q 413 599 443 591 q 353 607 383 607 l 353 607 q 255 580 295 607 q 195 499 215 553 q 174 364 174 445 l 174 364 l 174 289 l 162 289 q 196 377 170 340 q 261 433 221 413 q 350 452 301 452 l 350 452 q 458 423 411 452 q 532 343 505 394 q 559 226 559 292 l 559 226 q 530 105 559 158 q 448 21 500 51 q 326 -10 395 -10 m 319 92 l 319 92 q 383 108 355 92 q 425 154 410 124 q 440 221 440 183 l 440 221 q 425 289 440 260 q 383 335 410 318 q 319 351 355 351 l 319 351 q 256 335 283 351 q 214 289 229 318 q 198 221 198 260 l 198 221 q 214 154 198 183 q 256 108 229 124 q 319 92 283 92"},"7":{"ha":600,"x_min":47,"x_max":551,"o":"m 172 -8 l 172 -8 q 134 3 149 -8 q 116 33 119 14 q 125 74 113 51 l 125 74 l 427 642 l 427 598 l 103 598 q 62 612 76 598 q 47 651 47 626 l 47 651 q 62 691 47 677 q 103 705 76 705 l 103 705 l 490 705 q 534 691 517 705 q 551 651 551 677 l 551 651 q 545 613 551 629 q 529 577 539 596 l 529 577 l 245 34 q 217 2 234 12 q 172 -8 199 -8"},"8":{"ha":600,"x_min":38,"x_max":562,"o":"m 300 -10 l 300 -10 q 160 14 218 -10 q 70 82 101 37 q 38 190 38 127 l 38 190 q 59 279 38 240 q 115 341 79 317 q 197 371 151 365 l 197 371 l 197 350 q 95 412 133 364 q 56 525 56 459 l 56 525 q 86 628 56 585 q 171 693 116 670 q 300 715 226 715 l 300 715 q 430 693 375 715 q 515 628 485 670 q 545 525 545 585 l 545 525 q 528 444 545 481 q 479 383 510 407 q 405 351 447 359 l 405 351 l 405 371 q 519 313 475 361 q 562 190 562 264 l 562 190 q 531 82 562 127 q 441 14 499 37 q 300 -10 382 -10 m 300 90 l 300 90 q 407 118 371 90 q 443 199 443 145 l 443 199 q 407 280 443 253 q 300 307 371 307 l 300 307 q 194 280 230 307 q 157 199 157 253 l 157 199 q 194 118 157 145 q 300 90 230 90 m 300 407 l 300 407 q 368 420 340 407 q 411 456 396 432 q 426 512 426 480 l 426 512 q 393 588 426 560 q 300 615 359 615 l 300 615 q 208 588 241 615 q 175 512 175 560 l 175 512 q 208 435 175 463 q 300 407 241 407"},"9":{"ha":600,"x_min":41,"x_max":548,"o":"m 245 -10 l 245 -10 q 156 4 202 -10 q 70 44 110 17 l 70 44 q 49 70 54 54 q 48 102 44 86 q 62 129 51 117 q 88 143 72 140 q 123 134 104 145 l 123 134 q 187 106 157 114 q 247 98 217 98 l 247 98 q 345 125 305 98 q 406 207 385 152 q 426 341 426 261 l 426 341 l 426 416 l 438 416 q 405 329 431 366 q 339 273 379 292 q 250 253 299 253 l 250 253 q 143 282 190 253 q 68 363 95 311 q 41 479 41 414 l 41 479 q 71 601 41 548 q 153 685 100 654 q 274 715 206 715 l 274 715 q 423 674 362 715 q 516 555 484 633 q 548 365 548 476 l 548 365 q 528 206 548 275 q 468 88 507 136 q 373 15 429 40 q 245 -10 316 -10 m 282 355 l 282 355 q 346 372 318 355 q 388 418 373 388 q 403 485 403 447 l 403 485 q 388 553 403 524 q 346 598 373 582 q 282 614 318 614 l 282 614 q 219 598 246 614 q 177 553 192 582 q 161 485 161 524 l 161 485 q 177 418 161 447 q 219 372 192 388 q 282 355 246 355"},"a":{"ha":547,"x_min":43,"x_max":485,"o":"m 226 -10 l 226 -10 q 132 11 173 -10 q 67 66 90 31 q 43 145 43 101 l 43 145 q 71 231 43 199 q 162 276 99 262 q 331 290 225 290 l 331 290 l 381 290 l 381 218 l 332 218 q 233 212 270 218 q 181 192 196 206 q 165 151 165 177 l 165 151 q 188 97 165 118 q 252 76 211 76 l 252 76 q 311 92 285 76 q 351 134 336 107 q 366 196 366 161 l 366 196 l 366 311 q 344 383 366 361 q 270 405 322 405 l 270 405 q 208 398 241 405 q 137 374 174 391 l 137 374 q 104 369 118 365 q 81 386 89 373 q 73 413 73 398 q 81 443 73 428 q 108 464 89 457 l 108 464 q 197 491 154 483 q 274 499 239 499 l 274 499 q 393 477 346 499 q 462 411 439 455 q 485 296 485 366 l 485 296 l 485 56 q 470 9 485 25 q 427 -8 455 -8 l 427 -8 q 384 9 399 -8 q 368 56 368 25 l 368 56 l 368 104 l 376 104 q 349 44 369 69 q 297 4 328 18 q 226 -10 266 -10"},"b":{"ha":600,"x_min":65,"x_max":562,"o":"m 347 -10 l 347 -10 q 239 21 285 -10 q 177 104 192 52 l 177 104 l 188 129 l 188 56 q 172 9 188 25 q 127 -8 156 -8 l 127 -8 q 81 9 97 -8 q 65 56 65 25 l 65 56 l 65 650 q 81 697 65 681 q 127 713 97 713 l 127 713 q 174 697 157 713 q 190 650 190 681 l 190 650 l 190 390 l 178 390 q 240 469 194 439 q 347 499 286 499 l 347 499 q 460 468 412 499 q 535 381 508 437 q 562 245 562 324 l 562 245 q 535 110 562 167 q 460 21 508 52 q 347 -10 411 -10 m 312 85 l 312 85 q 377 103 349 85 q 421 157 405 121 q 436 245 436 192 l 436 245 q 402 365 436 325 q 312 404 368 404 l 312 404 q 247 387 275 404 q 204 334 219 369 q 188 245 188 298 l 188 245 q 222 126 188 166 q 312 85 256 85"},"c":{"ha":472,"x_min":38,"x_max":461,"o":"m 291 -10 l 291 -10 q 157 22 214 -10 q 69 111 100 53 q 38 247 38 169 l 38 247 q 56 353 38 306 q 106 432 73 399 q 186 482 139 464 q 291 499 233 499 l 291 499 q 363 490 324 499 q 435 460 401 481 l 435 460 q 456 436 451 450 q 458 408 461 422 q 446 383 455 393 q 422 370 436 372 q 391 376 408 367 l 391 376 q 346 396 369 389 q 302 402 323 402 l 302 402 q 244 392 269 402 q 202 362 219 381 q 175 313 184 342 q 166 246 166 284 l 166 246 q 202 130 166 172 q 302 87 237 87 l 302 87 q 346 93 323 87 q 391 112 368 99 l 391 112 q 422 118 408 121 q 444 105 435 115 q 455 80 453 94 q 452 51 457 65 q 431 28 446 37 l 431 28 q 361 -1 398 8 q 291 -10 324 -10"},"d":{"ha":600,"x_min":38,"x_max":535,"o":"m 253 -10 l 253 -10 q 141 21 189 -10 q 65 110 92 52 q 38 245 38 167 l 38 245 q 65 381 38 324 q 141 468 92 437 q 253 499 189 499 l 253 499 q 360 469 314 499 q 421 390 405 439 l 421 390 l 410 390 l 410 650 q 426 697 410 681 q 472 713 442 713 l 472 713 q 519 697 502 713 q 535 650 535 681 l 535 650 l 535 56 q 519 9 535 25 q 473 -8 503 -8 l 473 -8 q 427 9 443 -8 q 411 56 411 25 l 411 56 l 411 134 l 422 104 q 361 21 407 52 q 253 -10 315 -10 m 288 85 l 288 85 q 353 103 325 85 q 397 157 381 121 q 412 245 412 192 l 412 245 q 378 365 412 325 q 288 404 344 404 l 288 404 q 223 387 251 404 q 180 334 195 369 q 164 245 164 298 l 164 245 q 198 126 164 166 q 288 85 232 85"},"e":{"ha":542,"x_min":38,"x_max":508,"o":"m 306 -10 l 306 -10 q 163 21 223 -10 q 71 109 103 52 q 38 244 38 166 l 38 244 q 70 377 38 320 q 157 467 101 434 q 283 499 212 499 l 283 499 q 377 482 335 499 q 448 433 418 465 q 493 356 477 401 q 508 253 508 310 l 508 253 q 496 226 508 235 q 460 216 483 216 l 460 216 l 139 216 l 139 288 l 420 288 l 404 273 q 391 350 404 319 q 352 398 377 381 q 288 414 326 414 l 288 414 q 217 395 246 414 q 172 340 187 375 q 156 255 156 304 l 156 255 l 156 248 q 195 126 156 166 q 308 85 233 85 l 308 85 q 367 92 334 85 q 428 114 399 98 l 428 114 q 465 125 449 126 q 491 113 481 123 q 502 89 500 103 q 497 59 504 74 q 471 33 489 44 l 471 33 q 391 1 436 11 q 306 -10 345 -10"},"f":{"ha":364,"x_min":2,"x_max":386,"o":"m 161 -8 l 161 -8 q 115 9 131 -8 q 98 56 98 25 l 98 56 l 98 395 l 52 395 q 15 408 28 395 q 2 442 2 420 l 2 442 q 15 477 2 465 q 52 489 28 489 l 52 489 l 134 489 l 98 456 l 98 490 q 150 645 98 593 q 300 705 202 696 l 300 705 l 334 708 q 366 702 354 710 q 382 680 378 693 q 383 652 386 666 q 371 628 380 638 q 346 616 361 617 l 346 616 l 332 615 q 249 586 275 611 q 223 510 223 561 l 223 510 l 223 473 l 207 489 l 308 489 q 345 477 332 489 q 358 442 358 465 l 358 442 q 345 408 358 420 q 308 395 332 395 l 308 395 l 223 395 l 223 56 q 161 -8 223 -8"},"g":{"ha":604,"x_min":38,"x_max":539,"o":"m 293 -190 l 293 -190 q 189 -180 239 -190 q 97 -149 138 -170 l 97 -149 q 72 -125 78 -139 q 68 -96 65 -111 q 80 -71 70 -82 q 103 -56 89 -60 q 132 -60 117 -52 l 132 -60 q 216 -88 176 -82 q 283 -95 255 -95 l 283 -95 q 384 -62 350 -95 q 417 34 417 -30 l 417 34 l 417 124 l 426 124 q 364 43 411 73 q 256 12 316 12 l 256 12 q 141 43 190 12 q 65 128 92 73 q 38 256 38 183 l 38 256 q 54 356 38 311 q 98 432 69 400 q 167 482 126 464 q 256 499 207 499 l 256 499 q 365 469 318 499 q 425 388 411 438 l 425 388 l 415 363 l 415 434 q 432 481 415 465 q 477 497 448 497 l 477 497 q 523 481 507 497 q 539 434 539 465 l 539 434 l 539 49 q 476 -130 539 -70 q 293 -190 413 -190 m 290 107 l 290 107 q 357 125 329 107 q 401 177 385 143 q 416 256 416 210 l 416 256 q 382 365 416 325 q 290 404 348 404 l 290 404 q 223 386 251 404 q 180 335 195 368 q 164 256 164 302 l 164 256 q 198 147 164 187 q 290 107 232 107"},"h":{"ha":585,"x_min":65,"x_max":523,"o":"m 127 -8 l 127 -8 q 81 9 97 -8 q 65 56 65 25 l 65 56 l 65 650 q 81 697 65 681 q 127 713 97 713 l 127 713 q 174 697 157 713 q 190 650 190 681 l 190 650 l 190 391 l 176 391 q 245 472 198 444 q 350 499 291 499 l 350 499 q 447 477 409 499 q 504 411 485 455 q 523 298 523 366 l 523 298 l 523 56 q 507 9 523 25 q 461 -8 491 -8 l 461 -8 q 415 9 431 -8 q 398 56 398 25 l 398 56 l 398 292 q 377 375 398 349 q 310 401 355 401 l 310 401 q 223 367 255 401 q 190 275 190 332 l 190 275 l 190 56 q 127 -8 190 -8"},"i":{"ha":255,"x_min":53,"x_max":201,"o":"m 127 -7 l 127 -7 q 81 11 97 -7 q 65 61 65 29 l 65 61 l 65 428 q 81 479 65 461 q 127 496 97 496 l 127 496 q 174 479 157 496 q 190 428 190 461 l 190 428 l 190 61 q 174 11 190 29 q 127 -7 158 -7 m 127 589 l 127 589 q 73 607 92 589 q 53 655 53 624 l 53 655 q 73 704 53 687 q 127 721 92 721 l 127 721 q 182 704 163 721 q 201 655 201 687 l 201 655 q 182 607 201 624 q 127 589 163 589"},"j":{"ha":259,"x_min":-56,"x_max":205,"o":"m 5 -189 l 5 -189 q -31 -182 -17 -191 q -50 -161 -45 -174 q -54 -134 -56 -148 q -42 -109 -52 -120 q -17 -98 -33 -99 l -17 -98 q 49 -72 28 -94 q 69 -7 69 -51 l 69 -7 l 69 434 q 86 481 69 465 q 132 497 102 497 l 132 497 q 178 481 162 497 q 194 434 194 465 l 194 434 l 194 4 q 174 -101 194 -60 q 112 -163 153 -142 q 5 -189 70 -184 m 131 589 l 131 589 q 77 607 96 589 q 57 655 57 624 l 57 655 q 77 704 57 687 q 131 721 96 721 l 131 721 q 186 704 167 721 q 205 655 205 687 l 205 655 q 186 607 205 624 q 131 589 167 589"},"k":{"ha":536,"x_min":65,"x_max":503,"o":"m 127 -8 l 127 -8 q 81 9 97 -8 q 65 56 65 25 l 65 56 l 65 650 q 81 697 65 681 q 127 713 97 713 l 127 713 q 174 697 157 713 q 190 650 190 681 l 190 650 l 190 281 l 192 281 l 357 455 q 392 486 377 475 q 433 497 407 497 l 433 497 q 473 484 459 497 q 486 451 486 470 q 468 413 486 432 l 468 413 l 294 229 l 294 281 l 485 75 q 502 37 503 56 q 485 5 500 17 q 447 -8 470 -8 l 447 -8 q 403 3 419 -8 q 366 36 386 14 l 366 36 l 192 218 l 190 218 l 190 56 q 127 -8 190 -8"},"l":{"ha":319,"x_min":65,"x_max":318,"o":"m 232 -10 l 232 -10 q 107 38 149 -10 q 65 177 65 85 l 65 177 l 65 650 q 81 697 65 681 q 127 713 97 713 l 127 713 q 174 697 157 713 q 190 650 190 681 l 190 650 l 190 183 q 210 115 190 137 q 265 93 229 93 l 265 93 q 280 94 273 93 q 294 95 287 94 l 294 95 q 313 88 308 97 q 318 49 318 78 l 318 49 q 308 10 318 24 q 275 -7 298 -4 l 275 -7 q 254 -9 265 -8 q 232 -10 243 -10"},"m":{"ha":877,"x_min":67,"x_max":813,"o":"m 129 -8 l 129 -8 q 83 9 99 -8 q 67 56 67 25 l 67 56 l 67 434 q 83 481 67 465 q 128 497 99 497 l 128 497 q 173 481 157 497 q 189 434 189 465 l 189 434 l 189 361 l 178 391 q 240 470 198 441 q 340 499 282 499 l 340 499 q 437 471 399 499 q 490 385 475 443 l 490 385 l 476 385 q 542 469 496 438 q 648 499 588 499 l 648 499 q 741 477 704 499 q 795 411 777 455 q 813 298 813 366 l 813 298 l 813 56 q 797 9 813 25 q 750 -8 780 -8 l 750 -8 q 704 9 720 -8 q 688 56 688 25 l 688 56 l 688 293 q 670 375 688 349 q 607 401 651 401 l 607 401 q 530 367 558 401 q 502 271 502 332 l 502 271 l 502 56 q 486 9 502 25 q 440 -8 470 -8 l 440 -8 q 394 9 410 -8 q 377 56 377 25 l 377 56 l 377 293 q 359 375 377 349 q 297 401 340 401 l 297 401 q 220 367 248 401 q 192 271 192 332 l 192 271 l 192 56 q 129 -8 192 -8"},"n":{"ha":585,"x_min":65,"x_max":523,"o":"m 127 -8 l 127 -8 q 81 9 97 -8 q 65 56 65 25 l 65 56 l 65 434 q 81 481 65 465 q 126 497 97 497 l 126 497 q 171 481 155 497 q 187 434 187 465 l 187 434 l 187 366 l 176 391 q 245 472 198 444 q 350 499 291 499 l 350 499 q 447 477 409 499 q 504 411 485 455 q 523 298 523 366 l 523 298 l 523 56 q 507 9 523 25 q 461 -8 491 -8 l 461 -8 q 415 9 431 -8 q 398 56 398 25 l 398 56 l 398 292 q 377 375 398 349 q 310 401 355 401 l 310 401 q 223 367 255 401 q 190 275 190 332 l 190 275 l 190 56 q 127 -8 190 -8"},"o":{"ha":576,"x_min":38,"x_max":538,"o":"m 288 -10 l 288 -10 q 156 21 212 -10 q 69 110 100 52 q 38 245 38 167 l 38 245 q 56 351 38 304 q 106 431 73 397 q 185 482 139 464 q 288 499 231 499 l 288 499 q 420 468 364 499 q 507 380 476 437 q 538 245 538 323 l 538 245 q 521 139 538 186 q 470 59 503 92 q 391 8 437 25 q 288 -10 345 -10 m 288 85 l 288 85 q 353 103 325 85 q 397 157 381 121 q 412 245 412 192 l 412 245 q 378 365 412 325 q 288 404 344 404 l 288 404 q 223 387 251 404 q 180 334 195 369 q 164 245 164 298 l 164 245 q 198 126 164 166 q 288 85 232 85"},"p":{"ha":600,"x_min":65,"x_max":562,"o":"m 127 -188 l 127 -188 q 81 -172 97 -188 q 65 -125 65 -156 l 65 -125 l 65 434 q 81 481 65 465 q 126 497 97 497 l 126 497 q 172 481 156 497 q 188 434 188 465 l 188 434 l 188 356 l 177 386 q 239 468 192 437 q 347 499 285 499 l 347 499 q 460 468 411 499 q 535 381 508 437 q 562 245 562 324 l 562 245 q 535 110 562 167 q 460 21 508 52 q 347 -10 412 -10 l 347 -10 q 240 21 286 -10 q 178 100 194 51 l 178 100 l 190 100 l 190 -125 q 174 -172 190 -156 q 127 -188 157 -188 m 312 85 l 312 85 q 377 103 349 85 q 421 157 405 121 q 436 245 436 192 l 436 245 q 402 365 436 325 q 312 404 368 404 l 312 404 q 247 387 275 404 q 204 334 219 369 q 188 245 188 298 l 188 245 q 222 126 188 166 q 312 85 256 85"},"q":{"ha":600,"x_min":38,"x_max":535,"o":"m 472 -188 l 472 -188 q 426 -172 442 -188 q 410 -125 410 -156 l 410 -125 l 410 100 l 421 100 q 360 21 405 51 q 253 -10 314 -10 l 253 -10 q 141 21 189 -10 q 65 110 92 52 q 38 245 38 167 l 38 245 q 65 381 38 324 q 141 468 92 437 q 253 499 189 499 l 253 499 q 361 468 315 499 q 422 386 407 437 l 422 386 l 411 356 l 411 434 q 427 481 411 465 q 473 497 443 497 l 473 497 q 519 481 503 497 q 535 434 535 465 l 535 434 l 535 -125 q 519 -172 535 -156 q 472 -188 502 -188 m 288 85 l 288 85 q 353 103 325 85 q 397 157 381 121 q 412 245 412 192 l 412 245 q 378 365 412 325 q 288 404 344 404 l 288 404 q 223 387 251 404 q 180 334 195 369 q 164 245 164 298 l 164 245 q 198 126 164 166 q 288 85 232 85"},"r":{"ha":392,"x_min":65,"x_max":391,"o":"m 129 -8 l 129 -8 q 82 9 98 -8 q 65 56 65 25 l 65 56 l 65 434 q 81 481 65 465 q 126 497 97 497 l 126 497 q 171 481 155 497 q 187 434 187 465 l 187 434 l 187 371 l 177 371 q 232 462 191 431 q 341 499 273 493 l 341 499 q 375 489 362 501 q 389 450 387 476 l 389 450 q 378 410 391 425 q 337 391 364 394 l 337 391 l 315 389 q 223 352 254 383 q 192 263 192 320 l 192 263 l 192 56 q 176 9 192 25 q 129 -8 160 -8"},"s":{"ha":488,"x_min":38,"x_max":453,"o":"m 244 -10 l 244 -10 q 153 -1 201 -10 q 67 30 105 8 l 67 30 q 45 54 51 40 q 40 81 38 67 q 50 104 41 94 q 72 117 58 114 q 101 112 85 120 l 101 112 q 176 86 141 93 q 245 78 211 78 l 245 78 q 317 95 293 78 q 340 138 340 111 l 340 138 q 325 174 340 161 q 278 192 309 186 l 278 192 l 178 211 q 84 257 116 223 q 51 343 51 290 l 51 343 q 78 426 51 391 q 151 480 104 461 q 259 499 198 499 l 259 499 q 342 490 303 499 q 416 460 380 480 l 416 460 q 437 439 431 452 q 439 413 442 426 q 427 389 436 399 q 405 376 418 378 q 374 381 391 373 l 374 381 q 315 404 343 397 q 260 411 286 411 l 260 411 q 188 394 211 411 q 164 349 164 377 l 164 349 q 178 314 164 328 q 221 295 192 300 l 221 295 l 321 276 q 420 232 386 264 q 453 146 453 200 l 453 146 q 396 32 453 73 q 244 -10 339 -10"},"t":{"ha":384,"x_min":-7,"x_max":390,"o":"m 289 -10 l 289 -10 q 181 12 224 -10 q 116 77 137 34 q 95 182 95 119 l 95 182 l 95 395 l 43 395 q 6 408 19 395 q -7 442 -7 420 l -7 442 q 6 477 -7 465 q 43 489 19 489 l 43 489 l 95 489 l 95 580 q 112 627 95 611 q 158 643 128 643 l 158 643 q 204 627 188 643 q 220 580 220 611 l 220 580 l 220 489 l 326 489 q 363 477 350 489 q 376 442 376 465 l 376 442 q 363 408 376 420 q 326 395 350 395 l 326 395 l 220 395 l 220 189 q 241 117 220 141 q 309 93 262 93 l 309 93 q 339 96 326 93 q 362 100 352 99 l 362 100 q 382 93 374 101 q 390 58 390 84 l 390 58 q 384 23 390 38 q 360 1 377 7 l 360 1 q 326 -6 347 -3 q 289 -10 305 -10"},"u":{"ha":579,"x_min":62,"x_max":514,"o":"m 242 -10 l 242 -10 q 141 13 181 -10 q 82 80 101 35 q 62 192 62 125 l 62 192 l 62 434 q 78 482 62 466 q 124 497 94 497 l 124 497 q 171 482 154 497 q 187 434 187 466 l 187 434 l 187 190 q 208 113 187 138 q 275 88 229 88 l 275 88 q 357 123 325 88 q 389 214 389 157 l 389 214 l 389 434 q 405 482 389 466 q 451 497 421 497 l 451 497 q 498 482 481 497 q 514 434 514 466 l 514 434 l 514 56 q 453 -8 514 -8 l 453 -8 q 408 9 424 -8 q 392 56 392 25 l 392 56 l 392 132 l 406 102 q 343 19 385 48 q 242 -10 300 -10"},"v":{"ha":527,"x_min":21,"x_max":509,"o":"m 263 -8 l 263 -8 q 220 5 238 -8 q 189 45 201 18 l 189 45 l 30 414 q 24 455 21 436 q 42 486 26 474 q 84 497 57 497 l 84 497 q 121 487 107 497 q 146 447 135 476 l 146 447 l 281 110 l 251 110 l 390 448 q 416 487 401 476 q 455 497 430 497 l 455 497 q 490 486 477 497 q 506 456 503 474 q 499 415 509 437 l 499 415 l 337 45 q 308 5 326 18 q 263 -8 289 -8"},"w":{"ha":853,"x_min":28,"x_max":825,"o":"m 254 -8 l 254 -8 q 211 5 229 -8 q 182 44 193 17 l 182 44 l 37 414 q 32 457 28 438 q 50 486 35 475 q 90 497 65 497 l 90 497 q 126 487 112 497 q 150 447 140 476 l 150 447 l 271 114 l 248 114 l 373 455 q 395 487 381 477 q 430 497 408 497 l 430 497 q 466 487 452 497 q 487 455 480 476 l 487 455 l 610 114 l 589 114 l 711 450 q 737 487 721 477 q 771 497 752 497 l 771 497 q 808 485 795 497 q 823 455 821 473 q 816 414 825 436 l 816 414 l 672 44 q 644 5 662 18 q 600 -8 625 -8 l 600 -8 q 557 5 575 -8 q 528 44 538 18 l 528 44 l 397 391 l 454 391 l 326 45 q 298 5 316 18 q 254 -8 280 -8"},"x":{"ha":546,"x_min":47,"x_max":502,"o":"m 99 -5 l 99 -5 q 63 8 77 -5 q 48 40 48 20 q 64 82 47 60 l 64 82 l 226 282 l 226 223 l 74 410 q 57 452 56 432 q 73 485 58 472 q 109 497 87 497 l 109 497 q 148 489 132 497 q 176 464 163 481 l 176 464 l 296 310 l 252 310 l 373 464 q 402 489 387 481 q 439 497 417 497 l 439 497 q 476 484 462 497 q 491 451 490 471 q 473 409 491 431 l 473 409 l 322 224 l 322 280 l 484 82 q 501 41 502 61 q 486 8 500 21 q 448 -5 471 -5 l 448 -5 q 411 3 426 -5 q 382 28 396 11 l 382 28 l 252 192 l 294 192 l 165 28 q 137 4 152 12 q 99 -5 122 -5"},"y":{"ha":526,"x_min":20,"x_max":509,"o":"m 189 -188 l 189 -188 q 153 -176 167 -188 q 137 -146 139 -165 q 143 -106 134 -127 l 143 -106 l 211 45 l 211 -7 l 29 414 q 23 455 20 436 q 42 486 26 474 q 84 497 57 497 l 84 497 q 121 487 107 497 q 146 447 135 476 l 146 447 l 281 110 l 251 110 l 389 448 q 415 487 400 476 q 455 497 430 497 l 455 497 q 490 486 477 497 q 506 456 503 474 q 499 415 509 437 l 499 415 l 256 -140 q 228 -178 243 -168 q 189 -188 213 -188"},"z":{"ha":474,"x_min":41,"x_max":456,"o":"m 408 0 l 95 0 q 64 10 76 0 q 47 34 51 19 q 48 67 43 49 q 66 100 52 84 l 66 100 l 325 425 l 325 395 l 89 395 q 54 408 66 395 q 41 442 41 420 l 41 442 q 54 477 41 465 q 89 489 66 489 l 89 489 l 385 489 q 421 480 407 489 q 440 455 435 470 q 440 423 444 440 q 422 391 436 406 l 422 391 l 158 61 l 158 94 l 408 94 q 456 47 456 94 l 456 47 q 444 13 456 25 q 408 0 431 0 l 408 0"},"A":{"ha":744,"x_min":25,"x_max":722,"o":"m 84 -8 l 84 -8 q 46 3 60 -8 q 28 33 31 14 q 35 74 25 51 l 35 74 l 299 659 q 331 701 312 688 q 373 713 349 713 l 373 713 q 415 701 396 713 q 446 659 433 688 l 446 659 l 711 74 q 719 32 722 51 q 702 3 716 13 q 665 -8 688 -8 l 665 -8 q 622 6 637 -8 q 594 47 606 19 l 594 47 l 529 198 l 583 163 l 161 163 l 215 198 l 151 47 q 124 5 138 18 q 84 -8 110 -8 m 373 566 l 371 566 l 231 233 l 205 265 l 539 265 l 514 233 l 373 566"},"B":{"ha":688,"x_min":77,"x_max":636,"o":"m 396 0 l 145 0 q 95 18 112 0 q 77 68 77 35 l 77 68 l 77 637 q 95 688 77 670 q 145 705 112 705 l 145 705 l 385 705 q 511 683 459 705 q 591 620 563 661 q 618 522 618 579 l 618 522 q 581 414 618 458 q 480 355 544 370 l 480 355 l 480 370 q 595 314 554 359 q 636 197 636 269 l 636 197 q 573 52 636 103 q 396 0 509 0 l 396 0 m 200 309 l 200 97 l 380 97 q 480 124 448 97 q 512 203 512 150 l 512 203 q 480 283 512 257 q 380 309 448 309 l 380 309 l 200 309 m 200 608 l 200 406 l 363 406 q 462 432 429 406 q 494 507 494 457 l 494 507 q 462 583 494 557 q 363 608 429 608 l 363 608 l 200 608"},"C":{"ha":680,"x_min":54,"x_max":643,"o":"m 405 -10 l 405 -10 q 217 35 295 -10 q 96 161 138 79 q 54 353 54 242 l 54 353 q 78 503 54 436 q 147 617 102 569 q 258 690 192 664 q 405 715 323 715 l 405 715 q 513 701 460 715 q 606 661 566 687 l 606 661 q 634 630 627 648 q 637 594 641 611 q 621 564 633 576 q 590 551 608 552 q 549 563 571 549 l 549 563 q 482 592 518 583 q 409 601 446 601 l 409 601 q 289 572 338 601 q 215 488 240 543 q 190 353 190 433 l 190 353 q 215 218 190 274 q 289 133 240 162 q 409 104 338 104 l 409 104 q 484 114 447 104 q 554 143 521 123 l 554 143 q 594 155 576 156 q 623 142 611 153 q 639 115 635 131 q 637 81 643 98 q 613 50 631 63 l 613 50 q 518 6 573 21 q 405 -10 462 -10"},"D":{"ha":762,"x_min":77,"x_max":709,"o":"m 339 0 l 145 0 q 95 18 112 0 q 77 68 77 35 l 77 68 l 77 637 q 95 688 77 670 q 145 705 112 705 l 145 705 l 339 705 q 613 614 516 705 q 709 353 709 523 l 709 353 q 685 203 709 268 q 613 92 660 137 q 497 24 565 47 q 339 0 428 0 l 339 0 m 205 599 l 205 106 l 331 106 q 439 122 393 106 q 515 168 484 137 q 560 245 545 198 q 575 353 575 291 l 575 353 q 514 538 575 477 q 331 599 453 599 l 331 599 l 205 599"},"E":{"ha":597,"x_min":77,"x_max":554,"o":"m 502 0 l 145 0 q 95 18 112 0 q 77 68 77 35 l 77 68 l 77 637 q 95 688 77 670 q 145 705 112 705 l 145 705 l 502 705 q 541 692 527 705 q 554 655 554 679 l 554 655 q 541 617 554 630 q 502 603 527 603 l 502 603 l 200 603 l 200 409 l 480 409 q 519 396 506 409 q 532 358 532 383 l 532 358 q 519 320 532 333 q 480 307 506 307 l 480 307 l 200 307 l 200 102 l 502 102 q 541 89 527 102 q 554 51 554 76 l 554 51 q 541 13 554 26 q 502 0 527 0 l 502 0"},"F":{"ha":562,"x_min":77,"x_max":546,"o":"m 143 -8 l 143 -8 q 95 10 112 -8 q 77 60 77 27 l 77 60 l 77 637 q 95 688 77 670 q 145 705 112 705 l 145 705 l 494 705 q 533 692 520 705 q 546 655 546 679 l 546 655 q 533 617 546 630 q 494 603 520 603 l 494 603 l 205 603 l 205 404 l 473 404 q 512 391 498 404 q 525 354 525 378 l 525 354 q 512 316 525 329 q 473 302 498 302 l 473 302 l 205 302 l 205 60 q 143 -8 205 -8"},"G":{"ha":736,"x_min":54,"x_max":665,"o":"m 416 -10 l 416 -10 q 219 34 299 -10 q 96 159 138 78 q 54 351 54 240 l 54 351 q 79 502 54 435 q 150 617 103 569 q 263 690 196 664 q 415 715 330 715 l 415 715 q 528 702 471 715 q 634 656 584 688 l 634 656 q 657 629 651 645 q 658 597 662 613 q 643 568 654 580 q 616 553 632 556 q 579 561 599 550 l 579 561 q 502 593 541 583 q 415 603 463 603 l 415 603 q 290 574 341 603 q 214 488 239 544 q 188 351 188 432 l 188 351 q 247 164 188 228 q 422 100 306 100 l 422 100 q 503 108 462 100 q 583 130 544 116 l 583 130 l 558 73 l 558 286 l 448 286 q 410 299 423 286 q 396 334 396 312 l 396 334 q 410 369 396 357 q 448 381 423 381 l 448 381 l 613 381 q 652 368 638 381 q 665 329 665 354 l 665 329 l 665 86 q 657 49 665 64 q 629 27 648 34 l 629 27 q 528 1 585 11 q 416 -10 471 -10"},"H":{"ha":773,"x_min":77,"x_max":696,"o":"m 141 -8 l 141 -8 q 94 10 110 -8 q 77 58 77 27 l 77 58 l 77 647 q 94 696 77 679 q 141 713 110 713 l 141 713 q 189 696 172 713 q 205 647 205 679 l 205 647 l 205 411 l 568 411 l 568 647 q 585 696 568 679 q 632 713 601 713 l 632 713 q 680 696 663 713 q 696 647 696 679 l 696 647 l 696 58 q 680 10 696 27 q 632 -8 663 -8 l 632 -8 q 585 10 601 -8 q 568 58 568 27 l 568 58 l 568 304 l 205 304 l 205 58 q 189 10 205 27 q 141 -8 173 -8"},"I":{"ha":282,"x_min":77,"x_max":205,"o":"m 141 -8 l 141 -8 q 94 10 110 -8 q 77 58 77 27 l 77 58 l 77 647 q 94 696 77 679 q 141 713 110 713 l 141 713 q 189 696 172 713 q 205 647 205 679 l 205 647 l 205 58 q 189 10 205 27 q 141 -8 173 -8"},"J":{"ha":354,"x_min":-14,"x_max":278,"o":"m 80 -5 l 46 -7 q 2 8 18 -8 q -14 49 -14 24 l -14 49 q -2 83 -14 68 q 31 98 9 97 l 31 98 l 61 100 q 128 128 105 103 q 150 198 150 152 l 150 198 l 150 648 q 167 697 150 680 q 214 713 183 713 l 214 713 q 262 697 245 713 q 278 648 278 680 l 278 648 l 278 199 q 256 92 278 136 q 189 24 233 48 q 80 -5 145 -1 l 80 -5"},"K":{"ha":665,"x_min":77,"x_max":631,"o":"m 141 -8 l 141 -8 q 94 10 110 -8 q 77 58 77 27 l 77 58 l 77 648 q 94 697 77 680 q 141 713 110 713 l 141 713 q 189 697 172 713 q 205 648 205 680 l 205 648 l 205 393 l 207 393 l 494 681 q 526 705 510 697 q 562 713 542 713 l 562 713 q 604 698 591 713 q 614 663 616 683 q 594 626 611 643 l 594 626 l 302 337 l 303 395 l 608 85 q 630 43 629 65 q 617 7 631 21 q 574 -8 602 -8 l 574 -8 q 536 2 550 -8 q 502 31 521 12 l 502 31 l 207 326 l 205 326 l 205 58 q 189 10 205 27 q 141 -8 173 -8"},"L":{"ha":562,"x_min":77,"x_max":551,"o":"m 495 0 l 142 0 q 94 18 111 0 q 77 66 77 35 l 77 66 l 77 643 q 94 692 77 675 q 141 708 110 708 l 141 708 q 189 692 172 708 q 205 643 205 675 l 205 643 l 205 109 l 495 109 q 537 95 522 109 q 551 55 551 81 l 551 55 q 537 15 551 29 q 495 0 522 0 l 495 0"},"M":{"ha":868,"x_min":79,"x_max":790,"o":"m 137 -8 l 137 -8 q 94 8 109 -8 q 79 52 79 24 l 79 52 l 79 653 q 95 698 79 682 q 139 713 111 713 l 139 713 q 179 704 164 713 q 205 671 193 694 l 205 671 l 452 214 l 420 214 l 667 671 q 693 704 679 694 q 732 713 707 713 l 732 713 q 775 698 760 713 q 790 653 790 682 l 790 653 l 790 52 q 776 8 790 24 q 732 -8 761 -8 l 732 -8 q 689 8 704 -8 q 674 52 674 24 l 674 52 l 674 515 l 696 515 l 486 132 q 465 107 476 115 q 435 99 454 99 l 435 99 q 404 108 416 99 q 383 132 392 116 l 383 132 l 171 516 l 195 516 l 195 52 q 181 8 195 24 q 137 -8 166 -8"},"N":{"ha":748,"x_min":77,"x_max":671,"o":"m 137 -8 l 137 -8 q 93 8 108 -8 q 77 54 77 24 l 77 54 l 77 649 q 93 697 77 680 q 133 713 108 713 l 133 713 q 168 705 156 713 q 195 676 179 696 l 195 676 l 578 179 l 552 179 l 552 652 q 568 697 552 681 q 612 713 583 713 l 612 713 q 656 697 641 713 q 671 652 671 681 l 671 652 l 671 52 q 657 8 671 24 q 619 -8 643 -8 l 619 -8 q 583 1 596 -8 q 553 30 569 10 l 553 30 l 171 527 l 196 527 l 196 54 q 181 8 196 24 q 137 -8 166 -8"},"O":{"ha":785,"x_min":54,"x_max":732,"o":"m 393 -10 l 393 -10 q 215 35 291 -10 q 96 162 138 80 q 54 353 54 243 l 54 353 q 78 503 54 436 q 147 617 102 569 q 254 690 191 664 q 393 715 316 715 l 393 715 q 572 671 496 715 q 690 545 648 626 q 732 354 732 464 l 732 354 q 708 204 732 271 q 640 89 684 137 q 533 16 595 41 q 393 -10 470 -10 m 393 100 l 393 100 q 504 130 458 100 q 574 217 549 160 q 598 353 598 274 l 598 353 q 545 539 598 473 q 393 605 491 605 l 393 605 q 283 576 329 605 q 213 490 237 546 q 188 353 188 433 l 188 353 q 242 167 188 234 q 393 100 296 100"},"P":{"ha":652,"x_min":77,"x_max":625,"o":"m 141 -8 l 141 -8 q 94 10 110 -8 q 77 58 77 27 l 77 58 l 77 640 q 94 689 77 672 q 142 705 111 705 l 142 705 l 383 705 q 562 647 499 705 q 625 485 625 589 l 625 485 q 562 323 625 381 q 383 264 499 264 l 383 264 l 205 264 l 205 58 q 189 10 205 27 q 141 -8 173 -8 m 205 604 l 205 365 l 363 365 q 466 396 431 365 q 501 485 501 426 l 501 485 q 466 574 501 544 q 363 604 431 604 l 363 604 l 205 604"},"Q":{"ha":785,"x_min":54,"x_max":732,"o":"m 620 -45 l 663 -113 q 674 -153 677 -135 q 658 -183 671 -171 q 626 -199 645 -196 q 588 -195 607 -203 q 556 -167 569 -188 l 556 -167 l 487 -56 q 450 -21 473 -33 q 392 -10 426 -10 l 392 -10 l 491 29 q 566 13 538 29 q 620 -45 594 -4 l 620 -45 m 393 -10 l 393 -10 q 215 35 291 -10 q 96 162 138 80 q 54 353 54 243 l 54 353 q 78 503 54 436 q 147 617 102 569 q 254 690 191 664 q 393 715 316 715 l 393 715 q 572 671 496 715 q 690 545 648 626 q 732 354 732 464 l 732 354 q 708 204 732 271 q 640 89 684 137 q 533 16 595 41 q 393 -10 470 -10 m 393 100 l 393 100 q 504 130 458 100 q 574 217 549 160 q 598 353 598 274 l 598 353 q 545 539 598 473 q 393 605 491 605 l 393 605 q 283 576 329 605 q 213 490 237 546 q 188 353 188 433 l 188 353 q 242 167 188 234 q 393 100 296 100"},"R":{"ha":686,"x_min":77,"x_max":637,"o":"m 141 -8 l 141 -8 q 94 10 110 -8 q 77 58 77 27 l 77 58 l 77 640 q 94 689 77 672 q 142 705 111 705 l 142 705 l 383 705 q 562 650 499 705 q 625 494 625 594 l 625 494 q 597 382 625 429 q 514 310 568 335 q 383 285 460 285 l 383 285 l 392 300 l 425 300 q 497 280 466 300 q 550 217 527 260 l 550 217 l 625 78 q 636 37 637 57 q 621 5 635 17 q 580 -8 607 -8 l 580 -8 q 536 4 553 -8 q 506 39 519 15 l 506 39 l 405 225 q 363 271 387 259 q 300 282 338 282 l 300 282 l 205 282 l 205 58 q 189 10 205 27 q 141 -8 173 -8 m 205 604 l 205 377 l 361 377 q 466 406 430 377 q 501 491 501 434 l 501 491 q 466 576 501 547 q 361 604 430 604 l 361 604 l 205 604"},"S":{"ha":631,"x_min":47,"x_max":598,"o":"m 320 -10 l 320 -10 q 232 -3 276 -10 q 149 17 188 3 q 79 50 110 30 l 79 50 q 54 79 61 62 q 50 113 47 96 q 63 142 52 129 q 89 157 73 154 q 124 148 105 160 l 124 148 q 217 110 168 122 q 320 98 266 98 l 320 98 q 435 125 399 98 q 471 193 471 151 l 471 193 q 446 248 471 228 q 358 281 420 268 l 358 281 l 248 304 q 107 372 153 324 q 60 497 60 419 l 60 497 q 80 586 60 546 q 137 655 100 626 q 224 700 173 684 q 335 715 274 715 l 335 715 q 449 700 395 715 q 546 656 503 685 l 546 656 q 568 629 562 645 q 570 598 573 613 q 556 571 567 582 q 529 558 545 560 q 491 568 512 556 l 491 568 q 416 598 454 589 q 334 607 378 607 l 334 607 q 255 594 288 607 q 205 558 222 581 q 187 502 187 534 l 187 502 q 211 445 187 466 q 293 411 235 423 l 293 411 l 402 388 q 550 322 501 367 q 598 202 598 277 l 598 202 q 579 115 598 154 q 523 48 559 76 q 435 5 486 20 q 320 -10 384 -10"},"T":{"ha":621,"x_min":-3,"x_max":625,"o":"m 311 -8 l 311 -8 q 264 10 280 -8 q 247 58 247 27 l 247 58 l 247 598 l 52 598 q 12 613 26 598 q -3 652 -3 627 l -3 652 q 12 692 -3 678 q 52 705 26 705 l 52 705 l 570 705 q 611 692 596 705 q 625 652 625 678 l 625 652 q 611 613 625 627 q 570 598 596 598 l 570 598 l 375 598 l 375 58 q 359 10 375 27 q 311 -8 343 -8"},"U":{"ha":738,"x_min":72,"x_max":666,"o":"m 370 -10 l 370 -10 q 242 9 297 -10 q 148 66 186 28 q 91 159 110 103 q 72 289 72 215 l 72 289 l 72 648 q 89 697 72 681 q 136 713 105 713 l 136 713 q 184 697 167 713 q 200 648 200 681 l 200 648 l 200 290 q 244 148 200 195 q 370 100 287 100 l 370 100 q 496 148 453 100 q 539 290 539 195 l 539 290 l 539 648 q 556 697 539 681 q 603 713 572 713 l 603 713 q 650 697 633 713 q 666 648 666 681 l 666 648 l 666 289 q 633 124 666 191 q 533 24 599 57 q 370 -10 467 -10"},"V":{"ha":713,"x_min":12,"x_max":701,"o":"m 357 -8 l 357 -8 q 313 5 330 -8 q 284 42 295 17 l 284 42 l 23 628 q 17 672 12 653 q 38 702 22 691 q 76 713 54 713 l 76 713 q 120 701 105 713 q 144 663 134 688 l 144 663 l 381 114 l 338 114 l 574 664 q 600 701 585 688 q 642 713 615 713 l 642 713 q 679 702 664 713 q 697 672 693 691 q 690 628 701 653 l 690 628 l 429 42 q 402 5 418 17 q 357 -8 385 -8"},"W":{"ha":1113,"x_min":35,"x_max":1080,"o":"m 325 -8 l 325 -8 q 282 5 298 -8 q 255 46 265 18 l 255 46 l 46 637 q 51 691 35 669 q 103 713 66 713 l 103 713 q 145 701 130 713 q 169 661 160 688 l 169 661 l 349 127 l 309 127 l 497 660 q 522 700 507 687 q 561 713 537 713 l 561 713 q 599 700 585 713 q 623 659 613 687 l 623 659 l 805 127 l 770 127 l 953 661 q 977 700 962 687 q 1018 713 992 713 l 1018 713 q 1065 691 1050 713 q 1069 637 1080 669 l 1069 637 l 858 45 q 832 5 848 18 q 789 -8 816 -8 l 789 -8 q 746 5 762 -8 q 720 46 730 18 l 720 46 l 546 542 l 569 542 l 393 45 q 368 5 383 18 q 325 -8 352 -8"},"X":{"ha":672,"x_min":39,"x_max":633,"o":"m 101 -8 l 101 -8 q 60 6 76 -8 q 42 40 44 19 q 55 81 39 60 l 55 81 l 284 386 l 284 331 l 66 623 q 52 666 50 645 q 70 700 54 686 q 110 713 86 713 l 110 713 q 146 704 130 713 q 177 672 161 694 l 177 672 l 357 424 l 316 424 l 495 672 q 527 704 511 694 q 563 713 542 713 l 563 713 q 604 700 588 713 q 622 667 620 687 q 607 623 624 646 l 607 623 l 389 331 l 389 386 l 617 81 q 631 40 633 60 q 613 6 629 19 q 571 -8 597 -8 l 571 -8 q 537 2 552 -8 q 504 34 521 12 l 504 34 l 314 294 l 358 294 l 169 34 q 137 2 153 12 q 101 -8 121 -8"},"Y":{"ha":618,"x_min":18,"x_max":601,"o":"m 309 -8 l 309 -8 q 262 10 278 -8 q 245 59 245 27 l 245 59 l 245 363 l 272 286 l 31 625 q 20 664 18 643 q 36 699 21 684 q 78 713 51 713 l 78 713 q 115 703 98 713 q 146 672 131 693 l 146 672 l 325 418 l 297 418 l 477 672 q 508 704 493 694 q 545 713 523 713 l 545 713 q 586 700 571 713 q 601 666 600 686 q 586 624 601 646 l 586 624 l 347 286 l 373 363 l 373 59 q 309 -8 373 -8"},"Z":{"ha":605,"x_min":39,"x_max":592,"o":"m 535 0 l 106 0 q 66 10 81 0 q 45 38 50 20 q 45 77 39 55 q 67 121 50 98 l 67 121 l 449 639 l 449 598 l 96 598 q 54 612 68 598 q 39 652 39 626 l 39 652 q 54 692 39 678 q 96 705 68 705 l 96 705 l 510 705 q 551 695 535 705 q 572 668 566 685 q 572 629 577 651 q 549 584 566 607 l 549 584 l 167 67 l 167 107 l 535 107 q 578 94 563 107 q 592 54 592 80 l 592 54 q 578 14 592 28 q 535 0 563 0 l 535 0"}," ":{"ha":271,"x_min":0,"x_max":0,"o":""},"?":{"ha":459,"x_min":2,"x_max":444,"o":"m 223 204 l 223 204 q 194 217 204 204 q 183 250 183 229 l 183 250 q 191 309 183 281 q 215 364 198 336 q 260 423 232 392 l 260 423 q 294 466 281 447 q 312 501 306 484 q 317 536 317 518 l 317 536 q 293 588 317 569 q 225 607 269 607 l 225 607 q 153 597 185 607 q 87 567 120 586 l 87 567 q 48 556 65 554 q 19 568 30 557 q 5 595 8 579 q 10 628 2 611 q 39 659 18 645 l 39 659 q 133 701 80 686 q 233 715 186 715 l 233 715 q 344 694 296 715 q 418 636 391 673 q 444 549 444 599 l 444 549 q 435 491 444 518 q 406 436 426 463 q 351 376 386 408 l 351 376 q 302 325 320 348 q 275 281 283 302 q 263 236 266 260 l 263 236 q 252 213 262 222 q 223 204 241 204 m 221 -5 l 221 -5 q 167 16 187 -5 q 146 70 146 37 l 146 70 q 167 123 146 102 q 221 143 187 143 l 221 143 q 276 123 256 143 q 295 70 295 102 l 295 70 q 276 16 295 37 q 221 -5 256 -5"},"!":{"ha":248,"x_min":50,"x_max":199,"o":"m 125 203 l 125 203 q 96 215 106 203 q 83 249 85 227 l 83 249 l 53 631 q 69 691 50 668 q 125 713 88 713 l 125 713 q 180 691 161 713 q 195 631 198 668 l 195 631 l 165 249 q 154 215 164 227 q 125 203 143 203 m 125 -5 l 125 -5 q 71 16 91 -5 q 50 70 50 37 l 50 70 q 71 123 50 102 q 125 143 91 143 l 125 143 q 180 123 160 143 q 199 70 199 102 l 199 70 q 180 16 199 37 q 125 -5 160 -5"},".":{"ha":248,"x_min":50,"x_max":199,"o":"m 125 -5 l 125 -5 q 71 16 91 -5 q 50 70 50 37 l 50 70 q 71 123 50 102 q 125 143 91 143 l 125 143 q 180 123 160 143 q 199 70 199 102 l 199 70 q 180 16 199 37 q 125 -5 160 -5"},",":{"ha":248,"x_min":50,"x_max":199,"o":"m 141 -107 l 141 -107 q 114 -125 128 -123 q 88 -120 99 -128 q 76 -97 77 -112 q 89 -66 75 -83 l 89 -66 q 116 -16 109 -41 q 123 29 123 9 l 123 29 l 128 -5 q 72 16 93 -5 q 50 70 50 36 l 50 70 q 70 123 50 102 q 124 143 90 143 l 124 143 q 179 120 159 143 q 199 52 199 96 l 199 52 q 195 3 199 28 q 178 -50 190 -23 q 141 -107 165 -78"},"'":{"ha":243,"x_min":53,"x_max":189,"o":"m 122 407 l 122 407 q 91 420 104 407 q 75 455 77 433 l 75 455 l 56 640 q 72 692 53 671 q 122 713 91 713 l 122 713 q 158 704 142 713 q 181 678 173 694 q 187 640 189 661 l 187 640 l 168 455 q 154 420 166 433 q 122 407 141 407"},"\"":{"ha":448,"x_min":53,"x_max":394,"o":"m 122 407 l 122 407 q 91 420 104 407 q 75 455 77 433 l 75 455 l 56 640 q 72 692 53 671 q 122 713 91 713 l 122 713 q 158 704 142 713 q 181 678 173 694 q 187 640 189 661 l 187 640 l 168 455 q 154 420 166 433 q 122 407 141 407 m 327 407 l 327 407 q 296 420 309 407 q 280 455 282 433 l 280 455 l 261 640 q 277 692 258 671 q 327 713 296 713 l 327 713 q 363 704 347 713 q 386 678 378 694 q 392 640 394 661 l 392 640 l 373 455 q 359 420 371 433 q 327 407 346 407"}}}
